HIERARCHY
ROOT Hips
{
    OFFSET 0.000000 0.000000 0.000000
    CHANNELS 6 Xposition Yposition Zposition Zrotation Xrotation Yrotation
        JOINT Chest
        {
            OFFSET -0.000000 31.986500 -0.000000
            CHANNELS 3 Zrotation Xrotation Yrotation
            JOINT Neck
            {
                OFFSET -0.000000 24.131615 0.000000
                CHANNELS 3 Zrotation Xrotation Yrotation
                JOINT Head
                {
                    OFFSET -0.000000 10.450000 0.000000
                    CHANNELS 3 Zrotation Xrotation Yrotation
                    End Site
                    {
                        OFFSET -0.000000 16.150003 0.000000
                    }
                }
            }
            JOINT LeftCollar
            {
                OFFSET -0.000000 24.131615 0.000000
                CHANNELS 3 Zrotation Xrotation Yrotation
                JOINT LeftShoulder
                {
                    OFFSET 20.000000 -0.000000 0.000000
                    CHANNELS 3 Zrotation Xrotation Yrotation
                    JOINT LeftElbow
                    {
                        OFFSET 22.686384 0.000000 0.000000
                        CHANNELS 3 Zrotation Xrotation Yrotation
                        JOINT LeftWrist
                        {
                            OFFSET 24.813133 0.000000 0.000000
                            CHANNELS 3 Zrotation Xrotation Yrotation
                            End Site
                            {
                                OFFSET 0.000000 -14.250000 0.000000
                            }
                        }
                    }
                }
            }
            JOINT RightCollar
            {
                OFFSET -0.000000 24.131615 0.000000
                CHANNELS 3 Zrotation Xrotation Yrotation
                JOINT RightShoulder
                {
                    OFFSET -20.000000 0.000000 0.000000
                    CHANNELS 3 Zrotation Xrotation Yrotation
                    JOINT RightElbow
                    {
                        OFFSET -22.686384 0.000000 0.000000
                        CHANNELS 3 Zrotation Xrotation Yrotation
                        JOINT RightWrist
                        {
                            OFFSET -24.813133 0.000000 0.000000
                            CHANNELS 3 Zrotation Xrotation Yrotation
                            End Site
                            {
                                OFFSET -0.000000 -14.250000 0.000000
                            }
                        }
                    }
                }
            }
        }
    JOINT LeftHip
    {
        OFFSET 11.400001 0.000000 0.000000
        CHANNELS 3 Zrotation Xrotation Yrotation
        JOINT LeftKnee
        {
            OFFSET -0.000000 -38.315727 0.000000
            CHANNELS 3 Zrotation Xrotation Yrotation
            JOINT LeftAnkle
            {
                OFFSET -0.000000 -38.060658 0.000000
                CHANNELS 3 Zrotation Xrotation Yrotation
                End Site
                {
                    OFFSET -0.000000 -4.750000 16.150003
                }
            }
        }
    }
    JOINT RightHip
    {
        OFFSET -11.400001 0.000000 0.000000
        CHANNELS 3 Zrotation Xrotation Yrotation
        JOINT RightKnee
        {
            OFFSET -0.000000 -38.315727 0.000000
            CHANNELS 3 Zrotation Xrotation Yrotation
            JOINT RightAnkle
            {
                OFFSET -0.000000 -38.060658 0.000000
                CHANNELS 3 Zrotation Xrotation Yrotation
                End Site
                {
                    OFFSET -0.000000 -4.750000 16.150003
                }
            }
        }
    }
}
MOTION
Frames:    5
Frame Time:    0.010000
-65.950592    82.756630    -9.382551    1.515458    -4.952252    66.877922    7.904354    18.613094    -11.572525    1.720886    3.375895    -7.381532    -5.283884    -10.635682    -7.944877    -20.475546    0.536058    -2.812603    -47.491142    32.057812    -20.308367    -6.461117    6.598027    -90.906975    140.158005    -0.918209    -7.049932    27.924644    -2.671422    -10.603691    17.510284    60.679615    26.834953    -18.064417    -13.499468    73.259529    -141.302750    -6.129630    6.797508    12.292439    21.927271    1.502357    -4.799753    15.986749    3.472976    -20.118553    -12.979815    34.082432    2.236219    -20.789011    9.087745    -7.394747    32.516598    9.949687    12.715705    -9.894246    -8.123939    
-65.961380    82.951271    -9.398066    1.395470    -4.891955    66.931252    7.553452    18.758720    -11.505954    -0.735381    1.903816    -4.990548    -4.276328    -8.586310    -5.317369    -20.485432    0.089320    1.971764    -47.793667    31.295771    -21.560143    -6.091668    5.865362    -91.417381    138.427444    0.364604    -7.379124    27.290005    -2.140972    -7.055346    17.440271    62.207432    26.714022    -17.505201    -12.853004    73.761528    -142.096375    -6.424582    6.770147    12.390464    21.640821    1.507189    -4.883971    16.100859    3.284963    -20.105755    -12.621891    34.102097    2.267497    -20.520395    9.486472    -7.320695    31.859901    9.584852    13.175421    -9.793283    -8.517989    
-66.001968    83.075470    -9.425111    1.041960    -4.947927    66.952164    7.799269    18.323168    -11.598892    -0.615689    1.711834    -4.977999    -4.612453    -8.076370    -5.312922    -20.438431    -0.145715    2.115991    -48.031658    31.557989    -21.049082    -5.978531    6.030458    -91.456200    137.918442    0.392380    -6.961971    27.282160    -1.943635    -7.221505    16.845457    62.204231    27.212536    -17.505545    -13.147271    73.924263    -141.141296    -6.823284    7.152723    12.587069    21.109552    1.465285    -4.921453    16.361013    3.482434    -19.731049    -12.363633    33.910812    2.458135    -20.577436    10.044616    -7.054291    31.458223    8.915453    13.315098    -9.569707    -8.531561    
-66.022125    83.153984    -9.451579    0.920570    -4.921124    66.988945    7.899411    18.127621    -11.597858    -0.604900    1.550075    -4.985595    -4.847386    -7.636971    -5.317359    -20.393560    -0.269238    2.171162    -48.328827    31.653387    -20.673193    -5.937395    6.081144    -91.543861    137.559830    0.755136    -6.856696    27.222284    -1.849060    -7.339849    16.623116    62.181923    27.398508    -17.508200    -13.227977    74.047455    -140.922119    -7.068799    7.177213    12.620676    20.836361    1.465993    -4.923463    16.542095    3.465777    -19.595135    -12.225342    33.848370    2.465536    -20.504250    10.353793    -6.922919    31.133848    8.526856    13.486230    -9.467297    -8.580316    
-66.046356    83.221138    -9.486575    0.802052    -4.888715    67.036636    8.006039    17.937841    -11.591931    -0.568639    1.383994    -5.011018    -5.112106    -7.220123    -5.340357    -20.361343    -0.330608    2.211830    -48.567505    31.731113    -20.375870    -5.917778    6.071021    -91.655464    137.329086    0.975735    -6.836978    27.149696    -1.799737    -7.463501    16.493958    62.181725    27.449026    -17.459017    -13.236764    74.260620    -140.774567    -7.253957    7.181141    12.633881    20.534637    1.459813    -4.909804    16.775021    3.432765    -19.418642    -12.129095    33.789810    2.451054    -20.433607    10.684552    -6.767807    30.811138    8.069340    13.679720    -9.374398    -8.581673    
